<?xml version="1.0" standalone="no"?>
<!DOCTYPE svg PUBLIC "-//W3C//DTD SVG 20010904//EN"
 "http://www.w3.org/TR/2001/REC-SVG-20010904/DTD/svg10.dtd">
<svg version="1.0" xmlns="http://www.w3.org/2000/svg"
 width="348.000000pt" height="320.000000pt" viewBox="0 0 348.000000 320.000000"
 preserveAspectRatio="xMidYMid meet">

<g transform="translate(0.000000,320.000000) scale(0.100000,-0.100000)"
fill="#000000" stroke="none">
<path d="M2482 2784 c-218 -109 -165 -524 60 -464 59 16 129 90 154 161 22 65
23 170 1 219 -26 60 -93 110 -146 110 -9 0 -40 -12 -69 -26z"/>
<path d="M1943 2780 c-100 -66 -112 -274 -22 -383 63 -77 150 -96 218 -48 80
57 103 216 46 326 -41 79 -90 117 -157 122 -41 3 -60 -1 -85 -17z"/>
<path d="M1613 2410 c-124 -75 -76 -315 76 -383 109 -48 215 50 197 184 -21
160 -165 265 -273 199z"/>
<path d="M2825 2413 c-113 -59 -172 -198 -131 -308 29 -74 93 -107 170 -85 59
16 105 57 141 121 25 45 30 65 30 124 0 52 -5 78 -18 98 -40 62 -127 85 -192
50z"/>
<path d="M2200 2259 c-49 -20 -93 -63 -162 -158 -39 -53 -107 -133 -150 -179
-121 -126 -159 -232 -124 -339 17 -50 67 -108 116 -134 38 -19 135 -14 244 15
126 33 171 33 324 -5 114 -28 131 -30 177 -20 72 17 120 54 151 117 22 45 26
64 22 116 -5 88 -38 148 -134 248 -44 47 -105 121 -134 165 -66 101 -95 132
-145 157 -45 24 -148 33 -185 17z"/>
<path d="M765 1638 c-95 -52 -130 -183 -80 -303 22 -51 80 -112 121 -125 97
-32 194 65 194 195 0 145 -141 285 -235 233z"/>
<path d="M1235 1631 c-66 -41 -112 -122 -122 -214 -14 -138 77 -245 183 -216
48 14 107 69 135 127 31 65 33 180 3 237 -41 78 -131 108 -199 66z"/>
<path d="M466 1299 c-40 -11 -63 -35 -82 -85 -33 -85 5 -200 85 -261 77 -59
173 -39 207 43 61 147 -74 342 -210 303z"/>
<path d="M1555 1284 c-46 -23 -82 -62 -106 -113 -17 -36 -20 -59 -17 -114 4
-65 6 -71 41 -103 30 -28 44 -34 82 -34 54 0 89 16 131 62 67 70 89 157 60
233 -24 60 -57 85 -115 85 -25 0 -59 -7 -76 -16z"/>
<path d="M965 1138 c-38 -20 -78 -63 -148 -158 -39 -52 -99 -123 -133 -157
-77 -77 -107 -137 -112 -224 -6 -98 35 -168 120 -204 51 -21 89 -19 199 10
119 31 191 31 310 0 51 -13 112 -25 134 -25 53 0 113 29 152 73 89 101 63 237
-74 375 -36 36 -91 105 -123 152 -60 89 -114 144 -157 161 -33 12 -143 11
-168 -3z"/>
</g>
</svg>
